# xmcd
# 
# Track frame offsets:
#     150
#     16107
#     28125
#     41777
#     53305
#     66432
#     82692
#     99147
#     113250
#     127822
#     142737
#     158675
#     172857
#     188822
# 
# Disc length: 2730
# 
# Revision: 2
# Processed by: cddbd v1.5.2PL0 Copyright (c) Steve Scherf et al.
# Submitted via: BonkEnc v1.0.8
# 
DISCID=920aa80e
DTITLE=Various Artist - Country Love Songs--Men
DYEAR=2004
DGENRE=Country
TTITLE0=Willie Nelson - Always on My Mind
TTITLE1=Johnny Cash - Ring of Fire
TTITLE2=Ricky Skaggs - Crying My Heart Out Over You
TTITLE3=George Jones - A Picture of Me (Without You)
TTITLE4=Ronnie McDowell - You're Gonna Ruin My Bad Reputation
TTITLE5=Rick Trevino - I Only Get This Way With You
TTITLE6=Travis Tritt - Love of a Woman
TTITLE7=Billy Gilman - She's My Girl
TTITLE8=Collin Raye - In This Life
TTITLE9=Billy Ray Cyrus - Crazy 'Bout You Baby
TTITLE10=Joe Diffie - So Help Me Girl
TTITLE11=Doug Stone - Made for Lovin' You
TTITLE12=Ty Herndon - It Must Be Love
TTITLE13=Wade Hayes - The Day That She Left Tulsa (In a Chevy)
EXTD=
EXTT0=
EXTT1=
EXTT2=
EXTT3=
EXTT4=
EXTT5=
EXTT6=
EXTT7=
EXTT8=
EXTT9=
EXTT10=
EXTT11=
EXTT12=
EXTT13=
PLAYORDER=
